<svg xmlns="http://www.w3.org/2000/svg" width="130.05" height="130.05" viewBox="0 0 130.05 130.05"><g id="Layer_2" data-name="Layer 2"><g id="Layer_1-2" data-name="Layer 1"><path d="M0,0H130.05V130.05H0Z" fill="#fff"/><path d="M61.75,15.05l-1.51.14A50.12,50.12,0,0,0,24.3,35.91a49.48,49.48,0,0,0-8.82,21.84A37.59,37.59,0,0,0,15,65a37.54,37.54,0,0,0,.45,7.28,50.19,50.19,0,0,0,34.2,40.39,52.53,52.53,0,0,0,10.56,2.19,90,90,0,0,0,9.58,0,50.3,50.3,0,0,0,18-5.27c.86-.44,1-.55.91-.65S85,104,80.6,98.06l-8-10.8-10-14.83c-5.51-8.15-10-14.81-10.09-14.81s-.07,6.57-.09,14.62c0,14.08,0,14.65-.22,15a1.74,1.74,0,0,1-.86.89c-.31.16-.59.19-2.06.19H47.57L47.12,88a1.79,1.79,0,0,1-.66-.71l-.2-.44,0-19.6,0-19.6.3-.38a2.78,2.78,0,0,1,.72-.6c.4-.2.56-.21,2.25-.21,2,0,2.33.07,2.85.64.14.16,5.57,8.33,12.06,18.17L84.21,95.16l7.92,12,.4-.26a51.41,51.41,0,0,0,10.28-9,49.79,49.79,0,0,0,11.77-25.55A38.35,38.35,0,0,0,115,65a38.41,38.41,0,0,0-.45-7.29A50.2,50.2,0,0,0,80.37,17.36,52.15,52.15,0,0,0,70,15.18C69,15.08,62.56,15,61.75,15.05ZM82.22,45.29a2,2,0,0,1,1,1.16c.08.25.1,5.68.08,17.93l0,17.57-3.1-4.75-3.11-4.75V59.68c0-8.26,0-12.9.1-13.13a2,2,0,0,1,1-1.23c.41-.2.55-.22,2.09-.22S81.9,45.12,82.22,45.29Z"/></g></g></svg>