<svg xmlns="http://www.w3.org/2000/svg" xmlns:xlink="http://www.w3.org/1999/xlink" width="130.05" height="130.05" viewBox="0 0 130.05 130.05"><defs><clipPath id="clip-path"><rect x="15.03" y="15.03" width="100" height="100" fill="none"/></clipPath></defs><g id="Layer_2" data-name="Layer 2"><g id="Layer_1-2" data-name="Layer 1"><path d="M0,0H130.05V130.05H0Z" fill="#eceaef"/><g clip-path="url(#clip-path)"><path d="M113.14,60.57,69.48,16.91a6.45,6.45,0,0,0-9.11,0L51.3,26l11.5,11.5a7.65,7.65,0,0,1,9.69,9.75L83.57,58.31A7.67,7.67,0,1,1,79,62.64L68.65,52.3V79.5A7.66,7.66,0,1,1,59.84,81a7.51,7.51,0,0,1,2.51-1.67V51.82a7.51,7.51,0,0,1-2.51-1.67,7.65,7.65,0,0,1-1.65-8.38L46.85,30.43,16.91,60.37a6.45,6.45,0,0,0,0,9.11l43.66,43.66a6.45,6.45,0,0,0,9.11,0l43.46-43.46a6.45,6.45,0,0,0,0-9.11Z" fill="#f32735"/></g></g></g></svg>