<svg xmlns="http://www.w3.org/2000/svg" width="130.05" height="130.05" viewBox="0 0 130.05 130.05"><g id="Layer_2" data-name="Layer 2"><g id="Layer_1-2" data-name="Layer 1"><path d="M0,0H130.05V130.05H0Z" fill="#f7df1e"/><path d="M34.2,108.68l9.95-6c1.92,3.4,3.66,6.28,7.85,6.28,4,0,6.55-1.57,6.55-7.68V59.71H70.77v41.72c0,12.66-7.42,18.42-18.24,18.42-9.78,0-15.45-5.06-18.34-11.17m43.22-1.31,10-5.76c2.62,4.28,6,7.42,12,7.42,5.06,0,8.29-2.53,8.29-6,0-4.19-3.31-5.68-8.9-8.12l-3.06-1.31c-8.81-3.76-14.66-8.47-14.66-18.42C81.08,66,88.06,59,99,59c7.77,0,13.36,2.7,17.38,9.77l-9.52,6.12c-2.1-3.76-4.36-5.24-7.86-5.24s-5.85,2.27-5.85,5.24c0,3.66,2.27,5.15,7.51,7.42l3.06,1.31c10.39,4.45,16.23,9,16.23,19.2,0,11-8.64,17-20.25,17-11.35,0-18.68-5.41-22.26-12.48"/></g></g></svg>