<svg xmlns="http://www.w3.org/2000/svg" width="130.05" height="130.05" viewBox="0 0 130.05 130.05"><g id="Layer_2" data-name="Layer 2"><g id="Layer_1-2" data-name="Layer 1"><path d="M0,0H130.05V130.05H0Z" fill="#f16529"/><path d="M36,15h4.52v4.46H44.7V15h4.51V28.54H44.7V24H40.56v4.52H36Z" fill="#231f20"/><path d="M55.16,19.51h-4V15H63.65v4.48h-4v9H55.16v-9Z" fill="#231f20"/><path d="M65.64,15h4.71l2.9,4.75L76.14,15h4.71V28.54h-4.5v-6.7l-3.1,4.81h-.08l-3.11-4.81v6.7H65.64Z" fill="#231f20"/><path d="M83.1,15h4.52v9H94v4.46H83.1Z" fill="#231f20"/><path d="M53.29,67.29H65v-9.1H52.47ZM29.53,34.47,36,107,65,115l29-8,6.47-72.51Zm59,67.89L65,108.87V99.64h0L46.8,94.59,45.52,80.31h8.93l.66,7.41L65,90.39h0V76.18H45.15L42.76,49.29H65V40.4H94Z" fill="#231f20"/><path d="M76,76.18H65V90.39l9.91-2.68ZM65,40.4v8.89H87.3l-.8,8.9H65v9.1H85.69l-2.44,27.3L65,99.64v9.23l23.48-6.51L94,40.4Z" fill="#231f20" opacity="0.8" style="isolation:isolate"/><g opacity="0.2"><polygon points="65.03 49.29 42.76 49.29 45.15 76.18 65.03 76.18 65.03 67.29 53.29 67.29 52.47 58.19 65.03 58.19 65.03 49.29" fill="#231f20"/><polygon points="65.03 90.39 65.01 90.39 55.11 87.72 54.45 80.31 45.52 80.31 46.8 94.59 65.01 99.65 65.03 99.64 65.03 90.39" fill="#231f20"/></g></g></g></svg>